<svg xmlns="http://www.w3.org/2000/svg" xmlns:xlink="http://www.w3.org/1999/xlink" width="500" zoomAndPan="magnify" viewBox="0 0 375 374.999991" height="500" preserveAspectRatio="xMidYMid meet" version="1.0"><path fill="#ffffff" d="M 148.074219 308.640625 C 155.773438 298.574219 168.800781 294.617188 180.585938 289.960938 C 192.371094 285.304688 204.875 277.972656 207.855469 265.65625 C 204.761719 270.300781 200.171875 273.464844 195.023438 275.6875 C 207.941406 264.867188 213.097656 246.835938 217.179688 230.144531 C 220.183594 217.871094 223.1875 205.597656 226.191406 193.324219 C 223.722656 196.65625 220.839844 199.621094 217.484375 202.046875 C 216.730469 202.59375 221.261719 195.363281 226.519531 184.113281 C 228.726562 179.171875 230.566406 174.054688 231.902344 169.984375 C 233.308594 164.234375 234.714844 158.484375 236.125 152.734375 C 230.492188 161.640625 223.175781 169.460938 213.761719 173.4375 C 212.613281 173.921875 223.683594 163.085938 234.523438 147.109375 L 226.519531 153.339844 C 227.492188 152.738281 228.917969 151.039062 230.5625 148.777344 C 232.171875 146.445312 235.464844 139.941406 236.226562 138.417969 C 237.632812 135.109375 238.855469 131.757812 239.613281 129.527344 C 236.097656 133.679688 233.199219 136.894531 233.199219 136.894531 C 235.769531 134.09375 238.25 130.527344 240.597656 126.65625 C 241.238281 125.441406 241.941406 123.761719 242.632812 121.957031 C 238.121094 127.335938 233.144531 132.527344 229.378906 136.308594 C 228.820312 136.980469 228.265625 137.613281 227.722656 138.214844 L 227.664062 138.007812 C 228.214844 137.46875 228.757812 136.933594 229.378906 136.308594 C 235.332031 129.15625 242 117.960938 246.699219 109.503906 C 246.804688 109.09375 246.902344 108.679688 247.003906 108.265625 C 240.898438 117.097656 233.128906 125.117188 233.128906 125.117188 C 241.75 115.871094 247.714844 101.515625 250.804688 92.730469 C 252.28125 86.707031 253.753906 80.6875 255.226562 74.664062 C 256.785156 68.292969 257.792969 60.25 252.5 56.371094 C 246.410156 51.90625 238.113281 57.101562 232.449219 62.089844 C 212.574219 79.605469 192.53125 97.300781 176.925781 118.703125 C 161.320312 140.105469 150.300781 165.824219 150.96875 192.300781 C 146.652344 182.214844 145.820312 170.675781 148.640625 160.074219 C 116.324219 186.058594 106.515625 236.039062 126.316406 272.417969 L 125.054688 277.886719 C 118.710938 273.152344 114.976562 264.644531 113.238281 256.582031 C 110.976562 246.105469 110.511719 234.8125 104.683594 225.820312 C 107.992188 239.121094 106 253.128906 107.328125 266.773438 C 108.390625 277.714844 112.632812 289.335938 120.878906 295.984375 L 120.851562 296.113281 L 121.660156 298.628906 C 106.351562 294.214844 93.253906 282.320312 87.796875 267.304688 C 89.371094 287.476562 105.285156 305.554688 124.914062 310.128906 C 156.949219 216.5 210.769531 127.378906 210.769531 127.378906 C 168.492188 200.753906 139.679688 285.582031 129.246094 318.660156 C 132.636719 322.796875 137.617188 325.109375 143.679688 325.425781 C 152.460938 325.875 160.988281 322.695312 169.109375 319.3125 C 177.226562 315.933594 185.445312 312.25 194.214844 311.621094 C 180.777344 302.6875 162.550781 301.507812 148.074219 308.640625 " fill-opacity="1" fill-rule="nonzero"/><path fill="#ffffff" d="M 205.355469 125.179688 C 205.355469 125.179688 126.453125 255.835938 102.855469 366.949219 L 119.492188 330.710938 C 119.492188 330.710938 151.507812 218.644531 205.355469 125.179688 " fill-opacity="1" fill-rule="nonzero"/><path fill="#ffffff" d="M 159.316406 348.332031 C 166.15625 346.863281 173.296875 345.734375 180.132812 344.621094 C 194.734375 342.359375 207.464844 345.070312 222.300781 342.757812 C 231.597656 341.234375 240.949219 340.164062 250.394531 338.144531 C 252.753906 337.671875 255.058594 336.960938 257.40625 336.363281 C 259.75 335.75 262.105469 335.121094 264.378906 334.230469 C 266.675781 333.402344 268.976562 332.542969 271.273438 331.644531 C 273.519531 330.621094 275.738281 329.511719 277.957031 328.371094 L 281.003906 326.789062 L 283.949219 325.007812 L 289.832031 321.433594 L 295.476562 317.484375 L 298.296875 315.507812 L 300.996094 313.363281 L 306.375 309.054688 L 311.496094 304.441406 C 314.992188 301.457031 318.039062 297.992188 321.304688 294.777344 C 327.421875 287.9375 333.390625 280.953125 338.472656 273.335938 C 341.210938 269.664062 343.445312 265.667969 345.929688 261.835938 C 347.117188 259.886719 348.148438 257.847656 349.28125 255.867188 C 350.386719 253.871094 351.558594 251.910156 352.5 249.828125 C 360.222656 234.464844 365.210938 218.058594 367.371094 201.53125 C 369.503906 184.988281 369.121094 168.371094 366.585938 152.152344 C 364.09375 135.910156 359.132812 120.136719 352.3125 105.058594 C 345.445312 90.019531 336.542969 75.566406 325.359375 62.601562 C 318.992188 54.929688 311.453125 47.84375 303.363281 41.097656 C 295.179688 34.460938 286.171875 28.542969 276.714844 23.289062 C 267.203125 18.136719 257.140625 13.894531 246.894531 10.445312 C 236.605469 7.101562 226.082031 4.804688 215.671875 3.300781 C 200.496094 1.238281 176.828125 -0.0078125 154.488281 4.609375 C 132.035156 8.554688 111.613281 17.875 100.828125 25.253906 C 116.089844 16.777344 133.15625 10.417969 150.773438 7.105469 C 168.371094 3.75 186.425781 3.238281 203.414062 5.191406 C 165.871094 2.539062 127.179688 11.996094 94.585938 31.195312 C 78.332031 40.847656 63.292969 52.582031 50.792969 66.492188 C 38.261719 80.324219 27.8125 95.90625 20.539062 112.5 C 34.5 81.476562 58.476562 55.011719 87.136719 36.648438 C 115.886719 18.328125 149.632812 8.035156 183.226562 7.667969 C 216.8125 7.550781 249.625 17.09375 276.699219 34.0625 C 290.261719 42.492188 302.476562 52.644531 312.792969 64.113281 C 323.058594 75.644531 331.355469 88.457031 337.46875 101.878906 C 333.578125 94.199219 328.695312 86.878906 323.382812 79.691406 C 320.574219 76.214844 317.84375 72.605469 314.691406 69.3125 C 311.710938 65.855469 308.363281 62.707031 305.046875 59.46875 C 291.449219 46.898438 275.40625 35.984375 257.53125 28.046875 C 253.121094 25.910156 248.472656 24.308594 243.878906 22.488281 C 239.175781 21.003906 234.496094 19.304688 229.644531 18.160156 C 224.847656 16.777344 219.925781 15.886719 215 14.886719 C 212.527344 14.464844 210.03125 14.15625 207.539062 13.785156 C 205.046875 13.375 202.535156 13.15625 200.015625 12.96875 C 179.863281 11.046875 159.191406 13.179688 139.40625 18.398438 C 99.796875 28.992188 64.117188 53.519531 40.773438 85.429688 C 29.214844 101.453125 20.5625 119.054688 15.457031 137.039062 C 14.824219 139.289062 14.15625 141.511719 13.574219 143.753906 C 13.082031 146.015625 12.589844 148.265625 12.097656 150.511719 L 11.378906 153.863281 L 10.851562 157.242188 C 10.511719 159.488281 10.175781 161.722656 9.84375 163.949219 C 9.394531 168.429688 8.933594 172.855469 8.757812 177.257812 C 8.695312 181.667969 8.4375 186.003906 8.742188 190.3125 C 8.9375 200.742188 10.890625 212.1875 13.117188 220.515625 C 5.476562 187.839844 8.542969 149.085938 24.902344 114.007812 C 41.1875 78.921875 71.410156 48.863281 107.917969 31.792969 C 117.035156 27.53125 126.429688 23.796875 136.132812 21.148438 C 140.925781 19.632812 145.871094 18.691406 150.753906 17.574219 C 153.207031 17.078125 155.699219 16.753906 158.164062 16.335938 C 160.628906 15.917969 163.097656 15.546875 165.59375 15.363281 L 173.039062 14.652344 L 180.5 14.410156 L 184.21875 14.308594 L 187.933594 14.421875 C 190.410156 14.53125 192.882812 14.5 195.339844 14.726562 C 205.199219 15.386719 214.894531 17.039062 224.359375 19.203125 C 262.234375 28.332031 295.230469 49.867188 317.253906 76.789062 C 327.320312 89.191406 335.601562 102.96875 341.496094 117.742188 C 347.371094 132.503906 351.289062 148.039062 352.820312 163.796875 C 354.257812 179.550781 353.609375 195.484375 350.460938 210.90625 C 347.199219 226.296875 341.648438 241.109375 333.699219 254.792969 C 324.648438 269.382812 313.273438 282.695312 299.867188 293.457031 C 296.546875 296.363281 292.839844 298.765625 289.304688 301.386719 L 283.71875 304.910156 L 280.917969 306.660156 L 278.015625 308.222656 C 270.378906 312.609375 262.210938 315.914062 253.945312 318.738281 L 247.671875 320.652344 C 245.574219 321.257812 243.425781 321.648438 241.3125 322.167969 L 238.125 322.90625 C 237.050781 323.121094 235.945312 323.269531 234.855469 323.457031 C 232.65625 323.789062 230.519531 324.234375 228.273438 324.488281 C 219.40625 325.683594 210.140625 326.25 200.714844 326.945312 C 192.371094 327.519531 182.035156 328.175781 171.046875 329.835938 C 160.019531 331.359375 148.230469 334.519531 137.925781 339.328125 C 132.761719 341.753906 127.945312 344.597656 123.699219 347.707031 C 119.433594 350.785156 115.863281 354.316406 112.96875 357.679688 C 107.210938 364.578125 104.789062 371.25 104.671875 374.992188 C 107.550781 370.089844 111.117188 365.246094 115.300781 361.066406 C 119.46875 356.875 124.203125 353.363281 128.964844 350.851562 C 125.769531 353.449219 122.378906 356.710938 119.128906 360.164062 C 122.488281 357.152344 126.71875 354.519531 130.144531 352.105469 C 128.71875 353.105469 127.371094 354.242188 126.285156 355.273438 C 125.175781 356.269531 124.386719 357.230469 124.085938 357.925781 C 128.382812 354.875 134.476562 350.339844 138.214844 348.253906 C 139.277344 347.601562 142.28125 345.785156 145.535156 344.183594 C 148.777344 342.578125 152.261719 341.222656 153.886719 340.917969 C 149.945312 342.730469 145.558594 344.789062 141.597656 347.1875 C 137.648438 349.59375 134.0625 352.125 131.617188 354.566406 C 132.847656 353.867188 134.070312 353.164062 135.335938 352.554688 C 136.582031 351.917969 137.824219 351.285156 139.128906 350.820312 C 137.679688 351.777344 135.589844 353.15625 133.664062 354.425781 C 131.808594 355.796875 130.152344 357.042969 129.703125 357.902344 C 135.417969 354.128906 140.839844 351.070312 147.691406 348.699219 C 153.253906 346.796875 158.410156 345.582031 163.878906 344.109375 C 157.347656 345.953125 148.832031 349.03125 145.078125 351.859375 C 147.988281 350.992188 150.976562 349.839844 153.960938 348.832031 C 153.628906 349.050781 153.449219 349.246094 153.414062 349.402344 C 154.734375 348.96875 156.554688 348.65625 157.953125 348.273438 C 158.039062 348.453125 158.394531 348.558594 158.171875 348.824219 C 158.175781 348.679688 158.15625 348.539062 158.144531 348.394531 L 159.316406 348.332031 " fill-opacity="1" fill-rule="nonzero"/></svg>