<svg width="39" height="46" viewBox="0 0 39 46" fill="none" xmlns="http://www.w3.org/2000/svg">
<path d="M9.02075 44.2954L8.86377 17.5891" stroke="#FDE047" stroke-width="2.5" stroke-linecap="round"/>
<path d="M31.0208 44.2954L30.8638 17.5891" stroke="#FDE047" stroke-width="2.5" stroke-linecap="round"/>
<path d="M38.5485 19.2392C39.0307 19.7333 39.0211 20.5247 38.527 21.0069C38.033 21.489 37.2416 21.4794 36.7594 20.9854L38.5485 19.2392ZM36.7594 20.9854L18.1055 1.87304L19.8946 0.126861L38.5485 19.2392L36.7594 20.9854Z" fill="#FDE047"/>
<path d="M1.10545 19.2392C0.623259 19.7333 0.632866 20.5247 1.12691 21.0069C1.62096 21.489 2.41235 21.4794 2.89455 20.9854L1.10545 19.2392ZM2.89455 20.9854L21.5485 1.87304L19.7594 0.126861L1.10545 19.2392L2.89455 20.9854Z" fill="#FDE047"/>
</svg>
