<svg width="41" height="39" viewBox="0 0 41 39" fill="none" xmlns="http://www.w3.org/2000/svg">
<path d="M1.61612 19.0004C1.12796 19.4885 1.12796 20.28 1.61612 20.7682C2.10427 21.2563 2.89573 21.2563 3.38388 20.7682L1.61612 19.0004ZM3.38388 20.7682L22.2684 1.88364L20.5006 0.115872L1.61612 19.0004L3.38388 20.7682Z" fill="#FDE047"/>
<path d="M39.7684 19.0004C40.2566 19.4885 40.2566 20.28 39.7684 20.7682C39.2802 21.2563 38.4888 21.2563 38.0006 20.7682L39.7684 19.0004ZM38.0006 20.7682L19.1161 1.88364L20.8839 0.115872L39.7684 19.0004L38.0006 20.7682Z" fill="#FDE047"/>
<path d="M1.61612 27.0004C1.12796 27.4885 1.12796 28.28 1.61612 28.7682C2.10427 29.2563 2.89573 29.2563 3.38388 28.7682L1.61612 27.0004ZM3.38388 28.7682L22.2684 9.88364L20.5006 8.11587L1.61612 27.0004L3.38388 28.7682Z" fill="#FDE047"/>
<path d="M39.7684 27.0004C40.2566 27.4885 40.2566 28.28 39.7684 28.7682C39.2802 29.2563 38.4888 29.2563 38.0006 28.7682L39.7684 27.0004ZM38.0006 28.7682L19.1161 9.88364L20.8839 8.11587L39.7684 27.0004L38.0006 28.7682Z" fill="#FDE047"/>
<path d="M1.11612 36.5004C0.627961 36.9885 0.627961 37.78 1.11612 38.2682C1.60427 38.7563 2.39573 38.7563 2.88388 38.2682L1.11612 36.5004ZM2.88388 38.2682L21.7684 19.3836L20.0006 17.6159L1.11612 36.5004L2.88388 38.2682Z" fill="#FDE047"/>
<path d="M39.2684 36.5004C39.7566 36.9885 39.7566 37.78 39.2684 38.2682C38.7802 38.7563 37.9888 38.7563 37.5006 38.2682L39.2684 36.5004ZM37.5006 38.2682L18.6161 19.3836L20.3839 17.6159L39.2684 36.5004L37.5006 38.2682Z" fill="#FDE047"/>
</svg>
